- 
http://www.Speed.Cd 
       
http://www.Speed.Cd      fast  and The Hottest Private Tracker on the net

(((--Submit for invite!!--)))

Please Seed back to make the speed Faster!!!

------------------nfo--------------------------
-[img]http://img593.imageshack.us/img593/7061/contagionpostercombined.jpg[/img]
[pre]
     _______.     ___      .___  ___.  __    __  .______          ___       __  
    /       |    /   \     |   \/   | |  |  |  | |   _  \        /   \     |  | 
   |   (----`   /  ^  \    |  \  /  | |  |  |  | |  |_)  |      /  ^  \    |  | 
    \   \      /  /_\  \   |  |\/|  | |  |  |  | |      /      /  /_\  \   |  | 
.----)   |    /  _____  \  |  |  |  | |  `--'  | |  |\  \----./  _____  \  |  | 
|_______/    /__/     \__\ |__|  |__|  \______/  | _| `._____/__/     \__\ |__| 
                                                                                

Contagion.2011.CAM.XViD-SAMURAi

ANOTHER QUALiTY SAMURAi RELEASE!!!

Encoder........: SAMURAi
Video Codec....: XViD
Audio Codec....: AC-3
Audio Bitrate..: 192 kb/s
Subtitles......: N/a
Resolution.....: 524 x 288
Runtime........: 106 min  
Language.......: English
IMDB Link......: http://www.imdb.com/title/tt1598778/
Genre..........: Drama | Sci-Fi | Thriller 
Ratings........: 7.4/10 from 5,961 users   
Stars..........: Matt Damon, Kate Winslet and Jude Law 
Plot...........: A thriller centered on the threat posed by a deadly disease
and an international team of doctors contracted by the CDC to deal with the outbreak. 


Video Source: DTRG
Audio Source: DTRG
 
Format                           : AVI
Format/Info                      : Audio Video Interleave
File size                        : 1.58 GiB
Duration                         : 1h 41mn
Overall bit rate                 : 2 228 Kbps
Writing library                  : VirtualDub build 32842/release

Video
ID                               : 0
Format                           : MPEG-4 Visual
Format profile                   : Advanced Simple@L5
Format settings, BVOP            : 2
Format settings, QPel            : No
Format settings, GMC             : No warppoints
Format settings, Matrix          : Default (H.263)
Muxing mode                      : Packed bitstream
Codec ID                         : XVID
Codec ID/Hint                    : XviD
Duration                         : 1h 41mn
Bit rate                         : 2 025 Kbps
Width                            : 524 pixels
Height                           : 288 pixels
Display aspect ratio             : 16:9
Frame rate                       : 29.970 fps
Color space                      : YUV
Chroma subsampling               : 4:2:0
Bit depth                        : 8 bits
Scan type                        : Progressive
Compression mode                 : Lossy
Bits/(Pixel*Frame)               : 0.448
Stream size                      : 1.43 GiB (91%)
Writing library                  : XviD 64

Audio
ID                               : 1
Format                           : AC-3
Format/Info                      : Audio Coding 3
Mode extension                   : CM (complete main)
Codec ID                         : 2000
Duration                         : 1h 41mn
Bit rate mode                    : Constant
Bit rate                         : 192 Kbps
Channel(s)                       : 2 channels
Channel positions                : Front: L R
Sampling rate                    : 48.0 KHz
Bit depth                        : 16 bits
Compression mode                 : Lossy
Stream size                      : 139 MiB (9%)
Alignment                        : Aligned on interleaves
Interleave, duration             : 33 ms (1.00 video frame)
Interleave, preload duration     : 512 ms





Release Notes:
Heres my go at "Contagion" 2011 cam, lots of other releases already was olding out for
line audio but doesnt look like its gonna happen anytime soon so guess i will just encode
a cam for now. Source used was DTRG's which was pretty decent but needed a few filters
added denoise, sharpen, brightness/contrast, remember this is only a cam, take it or leave 
it.

Screenshots:
[img]http://img153.imageshack.us/img153/4777/vlcsnap2011092121h29m19.png[/img]
[img]http://img220.imageshack.us/img220/7332/vlcsnap2011092121h29m27.png[/img]
[img]http://img828.imageshack.us/img828/9959/vlcsnap2011092121h31m11.png[/img]
[img]http://img35.imageshack.us/img35/3004/vlcsnap2011092121h31m27.png[/img]
[img]http://img191.imageshack.us/img191/7589/vlcsnap2011092121h31m50.png[/img]
[img]http://img846.imageshack.us/img846/5177/vlcsnap2011092121h35m10.png[/img]



Greetz:
ViSiON, SiC, SANTi, IMAGiNE, MEM, LKRG, DTRG, FLAWL3SS, WBZ, NPW,
CM8, UnKnown, ETRG, SaM, Blackjesus, NOiR, EP1C, EMBER...and other p2p
groups past and present good job!

[/pre]